<svg height="477pt" viewBox="0 -2 477.272 477" width="477pt" xmlns="http://www.w3.org/2000/svg"><path d="m405.273438 440.136719c-35.363282 0-64-10.722657-64-24v32c0 13.277343 28.636718 24 64 24 35.359374 0 64-10.722657 64-24v-32c0 13.277343-28.640626 24-64 24zm0 0" fill="#ff9811"/><path d="m405.273438 376.136719c-35.363282 0-64-10.722657-64-24v32c0 13.277343 28.636718 24 64 24 35.359374 0 64-10.722657 64-24v-32c0 13.277343-28.640626 24-64 24zm0 0" fill="#ffa733"/><path d="m405.273438 344.136719c-35.363282 0-64-10.722657-64-24v32c0 13.277343 28.636718 24 64 24 35.359374 0 64-10.722657 64-24v-32c0 13.277343-28.640626 24-64 24zm0 0" fill="#ffb655"/><path d="m405.273438 408.136719c-35.363282 0-64-10.722657-64-24v32c0 13.277343 28.636718 24 64 24 35.359374 0 64-10.722657 64-24v-32c0 13.277343-28.640626 24-64 24zm0 0" fill="#ffb655"/><path d="m405.273438 248.136719c-35.363282 0-64-10.722657-64-24v32c0 13.277343 28.636718 24 64 24 35.359374 0 64-10.722657 64-24v-32c0 13.277343-28.640626 24-64 24zm0 0" fill="#ffc477"/><path d="m405.273438 312.136719c-35.363282 0-64-10.722657-64-24v32c0 13.277343 28.636718 24 64 24 35.359374 0 64-10.722657 64-24v-32c0 13.277343-28.640626 24-64 24zm0 0" fill="#ffc477"/><path d="m405.273438 280.136719c-35.363282 0-64-10.722657-64-24v32c0 13.277343 28.636718 24 64 24 35.359374 0 64-10.722657 64-24v-32c0 13.277343-28.640626 24-64 24zm0 0" fill="#ffb655"/><path d="m405.273438 216.136719c-35.34375 0-64-10.746094-64-24v32c0 13.277343 28.636718 24 64 24 35.359374 0 64-10.722657 64-24v-32c0 13.253906-28.65625 24-64 24zm0 0" fill="#ffb655"/><path d="m69.273438 472.136719c35.359374 0 64-10.722657 64-24v-32c0 13.277343-28.640626 24-64 24-35.363282 0-64-10.722657-64-24v32c0 13.277343 28.636718 24 64 24zm0 0" fill="#ff6243"/><path d="m237.273438 408.136719c-35.363282 0-64-10.722657-64-24v32c0 13.277343 28.636718 24 64 24 35.359374 0 64-10.722657 64-24v-32c0 13.277343-28.640626 24-64 24zm0 0" fill="#ffa733"/><path d="m237.273438 376.136719c-35.363282 0-64-10.722657-64-24v32c0 13.277343 28.636718 24 64 24 35.359374 0 64-10.722657 64-24v-32c0 13.277343-28.640626 24-64 24zm0 0" fill="#ff9811"/><path d="m237.273438 312.136719c-35.34375 0-64-10.746094-64-24v32c0 13.277343 28.636718 24 64 24 35.359374 0 64-10.722657 64-24v-32c0 13.253906-28.65625 24-64 24zm0 0" fill="#ffb655"/><path d="m237.273438 344.136719c-35.363282 0-64-10.722657-64-24v32c0 13.277343 28.636718 24 64 24 35.359374 0 64-10.722657 64-24v-32c0 13.277343-28.640626 24-64 24zm0 0" fill="#ffa733"/><path d="m69.273438 440.136719c35.359374 0 64-10.722657 64-24v-32c0 13.277343-28.640626 24-64 24-35.363282 0-64-10.722657-64-24v32c0 13.277343 28.636718 24 64 24zm0 0" fill="#ff9478"/><path d="m69.273438 408.136719c35.359374 0 64-10.722657 64-24v-32c0 13.253906-28.65625 24-64 24s-64-10.746094-64-24v32c0 13.277343 28.636718 24 64 24zm0 0" fill="#ff7956"/><path d="m237.273438 440.136719c-35.363282 0-64-10.722657-64-24v32c0 13.277343 28.636718 24 64 24 35.359374 0 64-10.722657 64-24v-32c0 13.277343-28.640626 24-64 24zm0 0" fill="#ff9811"/><path d="m133.273438 352.136719c0-13.253907-28.65625-24-64-24-35.347657 0-64 10.746093-64 24 0 13.253906 28.652343 24 64 24 35.34375 0 64-10.746094 64-24zm0 0" fill="#ff9478"/><path d="m301.273438 288.136719c0-13.253907-28.65625-24-64-24-35.347657 0-64 10.746093-64 24 0 13.253906 28.652343 24 64 24 35.34375 0 64-10.746094 64-24zm0 0" fill="#ffa733"/><path d="m469.273438 192.136719c0-13.253907-28.65625-24-64-24-35.347657 0-64 10.746093-64 24 0 13.253906 28.652343 24 64 24 35.34375 0 64-10.746094 64-24zm0 0" fill="#ffa733"/><path d="m389.273438.136719v16h60.6875l-152 152h-167.695313l-130.265625 113.976562 10.542969 12.046875 125.738281-110.023437h168.304688l156.6875-156.6875v60.6875h16v-88zm0 0" fill="#5eac24"/></svg>