<svg height="480pt" viewBox="0 0 480 480" width="480pt" xmlns="http://www.w3.org/2000/svg"><path d="m264 296h176c17.671875 0 32 14.328125 32 32v112c0 17.671875-14.328125 32-32 32h-176c-17.671875 0-32-14.328125-32-32v-112c0-17.671875 14.328125-32 32-32zm0 0" fill="#e97424"/><path d="m176 408h-144l-24-368h192zm0 0" fill="#f98c96"/><path d="m264 264h176v32h-176zm0 0" fill="#ffd782"/><path d="m232 328h240v112h-240zm0 0" fill="#ffd782"/><path d="m264 328h176v112h-176zm0 0" fill="#dd3e46"/><path d="m8 8h192v32h-192zm0 0" fill="#dd3e46"/><g fill="#fff"><path d="m168 96h-128c-4.417969 0-8-3.582031-8-8s3.582031-8 8-8h128c4.417969 0 8 3.582031 8 8s-3.582031 8-8 8zm0 0"/><path d="m88 128h-40c-4.417969 0-8-3.582031-8-8s3.582031-8 8-8h40c4.417969 0 8 3.582031 8 8s-3.582031 8-8 8zm0 0"/><path d="m160 128h-40c-4.417969 0-8-3.582031-8-8s3.582031-8 8-8h40c4.417969 0 8 3.582031 8 8s-3.582031 8-8 8zm0 0"/><path d="m152 160h-96c-4.417969 0-8-3.582031-8-8s3.582031-8 8-8h96c4.417969 0 8 3.582031 8 8s-3.582031 8-8 8zm0 0"/></g><path d="m73.679688 184h60.640624c4.523438 0 8.832032 1.914062 11.867188 5.265625 3.03125 3.355469 4.503906 7.835937 4.050781 12.335937l-4.796875 48c-.824218 8.175782-7.703125 14.398438-15.921875 14.398438h-51.039062c-8.21875 0-15.097657-6.222656-15.921875-14.398438l-4.796875-48c-.453125-4.5 1.019531-8.980468 4.050781-12.335937 3.035156-3.351563 7.34375-5.265625 11.867188-5.265625zm0 0" fill="#dd3e46"/><path d="m136 304h-64c-4.417969 0-8-3.582031-8-8s3.582031-8 8-8h64c4.417969 0 8 3.582031 8 8s-3.582031 8-8 8zm0 0" fill="#fff"/><path d="m136 336h-64c-4.417969 0-8-3.582031-8-8s3.582031-8 8-8h64c4.417969 0 8 3.582031 8 8s-3.582031 8-8 8zm0 0" fill="#fff"/><path d="m32 408h144v64h-144zm0 0" fill="#ffd782"/><path d="m32 440h144v32h-144zm0 0" fill="#dd3e46"/><path d="m248 232h208v32h-208zm0 0" fill="#dd3e46"/><path d="m408 376h-112c-4.417969 0-8-3.582031-8-8s3.582031-8 8-8h112c4.417969 0 8 3.582031 8 8s-3.582031 8-8 8zm0 0" fill="#fff"/><path d="m408 408h-112c-4.417969 0-8-3.582031-8-8s3.582031-8 8-8h112c4.417969 0 8 3.582031 8 8s-3.582031 8-8 8zm0 0" fill="#fff"/><path d="m0 40.519531 24 367.761719v63.71875c0 4.417969 3.582031 8 8 8h144c4.417969 0 8-3.582031 8-8v-63.71875l24-367.761719c0-.085937 0-.421875 0-.519531v-32c0-4.417969-3.582031-8-8-8h-192c-4.417969 0-8 3.582031-8 8v32zm168 391.480469h-128v-16h128zm0 32h-128v-16h128zm.503906-64h-129.007812l-22.960938-352h174.929688zm-152.503906-384h176v16h-176zm0 0"/><path d="m40 96h128c4.417969 0 8-3.582031 8-8s-3.582031-8-8-8h-128c-4.417969 0-8 3.582031-8 8s3.582031 8 8 8zm0 0"/><path d="m88 128c4.417969 0 8-3.582031 8-8s-3.582031-8-8-8h-40c-4.417969 0-8 3.582031-8 8s3.582031 8 8 8zm0 0"/><path d="m160 112h-40c-4.417969 0-8 3.582031-8 8s3.582031 8 8 8h40c4.417969 0 8-3.582031 8-8s-3.582031-8-8-8zm0 0"/><path d="m152 144h-96c-4.417969 0-8 3.582031-8 8s3.582031 8 8 8h96c4.417969 0 8-3.582031 8-8s-3.582031-8-8-8zm0 0"/><path d="m134.320312 176h-60.640624c-6.78125 0-13.25 2.871094-17.796876 7.898438-4.550781 5.03125-6.761718 11.753906-6.082031 18.5l4.800781 48c1.191407 12.285156 11.535157 21.644531 23.878907 21.601562h51.039062c12.34375.042969 22.6875-9.316406 23.878907-21.601562l4.800781-48c.679687-6.746094-1.53125-13.46875-6.082031-18.5-4.546876-5.027344-11.015626-7.898438-17.796876-7.898438zm3.160157 72.800781c-.410157 4.085938-3.851563 7.199219-7.960938 7.199219h-51.039062c-4.125.019531-7.589844-3.097656-8-7.199219l-4.800781-48c-.226563-2.257812.515624-4.503906 2.039062-6.183593 1.527344-1.675782 3.691406-2.628907 5.960938-2.617188h60.640624c2.269532-.011719 4.433594.941406 5.960938 2.617188 1.523438 1.679687 2.265625 3.925781 2.039062 6.183593zm0 0"/><path d="m136 288h-64c-4.417969 0-8 3.582031-8 8s3.582031 8 8 8h64c4.417969 0 8-3.582031 8-8s-3.582031-8-8-8zm0 0"/><path d="m136 320h-64c-4.417969 0-8 3.582031-8 8s3.582031 8 8 8h64c4.417969 0 8-3.582031 8-8s-3.582031-8-8-8zm0 0"/><path d="m448 288.800781v-16.800781h8c4.417969 0 8-3.582031 8-8v-32c0-4.417969-3.582031-8-8-8h-208c-4.417969 0-8 3.582031-8 8v32c0 4.417969 3.582031 8 8 8h8v16.800781c-18.613281 3.828125-31.976562 20.199219-32 39.199219v112c.027344 22.082031 17.917969 39.972656 40 40h176c22.082031-.027344 39.972656-17.917969 40-40v-112c-.023438-19-13.386719-35.371094-32-39.199219zm-208 143.199219v-96h16v96zm32-96h160v96h-160zm176 0h16v96h-16zm-192-96h192v16h-192zm176 32v16h-160v-16zm-168 32h176c10.132812.042969 19.148438 6.445312 22.527344 16h-221.054688c3.378906-9.554688 12.394532-15.957031 22.527344-16zm176 160h-176c-10.132812-.042969-19.148438-6.445312-22.527344-16h221.054688c-3.378906 9.554688-12.394532 15.957031-22.527344 16zm0 0"/><path d="m408 360h-112c-4.417969 0-8 3.582031-8 8s3.582031 8 8 8h112c4.417969 0 8-3.582031 8-8s-3.582031-8-8-8zm0 0"/><path d="m408 392h-112c-4.417969 0-8 3.582031-8 8s3.582031 8 8 8h112c4.417969 0 8-3.582031 8-8s-3.582031-8-8-8zm0 0"/></svg>